<?xml version="1.0" encoding="UTF-8" standalone="no"?>
<!DOCTYPE svg PUBLIC "-//W3C//DTD SVG 1.1//EN"
"http://www.w3.org/Graphics/SVG/1.1/DTD/svg11.dtd">
<svg viewBox="0 0 1100 618" version="1.1" xmlns="http://www.w3.org/2000/svg" xmlns:xlink="http://www.w3.org/1999/xlink">
<defs>
<clipPath id="c0_17"><path d="M0,618.7V0H1100V618.7Z" /></clipPath>
<style type="text/css"><![CDATA[
.g0_17{
fill: #FFFFFF;
}
.g1_17{
fill: #212121;
}
.g2_17{
fill: none;
stroke: #9E9E9E;
stroke-width: 0.99300975;
stroke-linecap: butt;
stroke-linejoin: round;
}
]]></style>
</defs>
<g clip-path="url(#c0_17)">
<path fill-rule="evenodd" d="M0,0H1100V618.7H0V0Z" class="g0_17" />
<path fill-rule="evenodd" d="M0,0H1100V618.8H0V0Z" class="g1_17" />
</g>
<path d="M114.1,278.7h896.3M114.1,324.5h896.3M114.1,392.4h896.3M114.1,460.2h180m-180,93.4h180m-1,-93.4h180m-180,93.4h180m-.9,-93.4h180m-180,93.4h180m-1,-93.4h180m-180,93.4h180m-1,-93.4h180.2M830.2,553.6h180.2M114.6,278.2V554.1m179,-275.9V554.1M472.7,278.2V554.1m179,-275.9V554.1m179,-275.9V325m179.2,-46.8V325M830.7,324v68.8M1009.9,324v68.8m-179.2,-.9v68.8m179.2,-68.8v68.8m-179.2,-1v94.4m179.2,-94.4v94.4" class="g2_17" />
</svg>